<svg viewBox="0 0 330 200" xmlns="http://www.w3.org/2000/svg"><g><g><g><g><g><line x1="41.149001121520996" y1="177.86999988555908" x2="36.149001121520996" y2="177.86999988555908" style="visibility: inherit;" fill="rgb(0, 0, 0)" stroke="rgb(204, 204, 204)" stroke-width="1px"></line><line x1="41.149001121520996" y1="158.1066665649414" x2="36.149001121520996" y2="158.1066665649414" style="visibility: inherit;" fill="rgb(0, 0, 0)" stroke="rgb(204, 204, 204)" stroke-width="1px"></line><line x1="41.149001121520996" y1="138.34333324432373" x2="36.149001121520996" y2="138.34333324432373" style="visibility: inherit;" fill="rgb(0, 0, 0)" stroke="rgb(204, 204, 204)" stroke-width="1px"></line><line x1="41.149001121520996" y1="118.57999992370607" x2="36.149001121520996" y2="118.57999992370607" style="visibility: inherit;" fill="rgb(0, 0, 0)" stroke="rgb(204, 204, 204)" stroke-width="1px"></line><line x1="41.149001121520996" y1="98.81666660308838" x2="36.149001121520996" y2="98.81666660308838" style="visibility: inherit;" fill="rgb(0, 0, 0)" stroke="rgb(204, 204, 204)" stroke-width="1px"></line><line x1="41.149001121520996" y1="79.0533332824707" x2="36.149001121520996" y2="79.0533332824707" style="visibility: inherit;" fill="rgb(0, 0, 0)" stroke="rgb(204, 204, 204)" stroke-width="1px"></line><line x1="41.149001121520996" y1="59.289999961853034" x2="36.149001121520996" y2="59.289999961853034" style="visibility: inherit;" fill="rgb(0, 0, 0)" stroke="rgb(204, 204, 204)" stroke-width="1px"></line><line x1="41.149001121520996" y1="39.526666641235366" x2="36.149001121520996" y2="39.526666641235366" style="visibility: inherit;" fill="rgb(0, 0, 0)" stroke="rgb(204, 204, 204)" stroke-width="1px"></line><line x1="41.149001121520996" y1="19.763333320617665" x2="36.149001121520996" y2="19.763333320617665" style="visibility: inherit;" fill="rgb(0, 0, 0)" stroke="rgb(204, 204, 204)" stroke-width="1px"></line><line x1="41.149001121520996" y1="0" x2="36.149001121520996" y2="0" style="visibility: inherit;" fill="rgb(0, 0, 0)" stroke="rgb(204, 204, 204)" stroke-width="1px"></line></g><g transform="translate(31.149001121520996, 0)"><text style="text-anchor: end; visibility: hidden; font-family: Roboto, sans-serif; font-size: 12px; font-weight: 200;" x="0" y="177.86999988555908" dx="0em" dy="0.3em" fill="rgb(50, 49, 63)" stroke="none" stroke-width="1px">0</text><text style="text-anchor: end; visibility: inherit; font-family: Roboto, sans-serif; font-size: 12px; font-weight: 200;" x="0" y="158.1066665649414" dx="0em" dy="0.3em" fill="rgb(50, 49, 63)" stroke="none" stroke-width="1px">0.1</text><text style="text-anchor: end; visibility: hidden; font-family: Roboto, sans-serif; font-size: 12px; font-weight: 200;" x="0" y="138.34333324432373" dx="0em" dy="0.3em" fill="rgb(50, 49, 63)" stroke="none" stroke-width="1px">0.2</text><text style="text-anchor: end; visibility: inherit; font-family: Roboto, sans-serif; font-size: 12px; font-weight: 200;" x="0" y="118.57999992370607" dx="0em" dy="0.3em" fill="rgb(50, 49, 63)" stroke="none" stroke-width="1px">0.3</text><text style="text-anchor: end; visibility: hidden; font-family: Roboto, sans-serif; font-size: 12px; font-weight: 200;" x="0" y="98.81666660308838" dx="0em" dy="0.3em" fill="rgb(50, 49, 63)" stroke="none" stroke-width="1px">0.4</text><text style="text-anchor: end; visibility: inherit; font-family: Roboto, sans-serif; font-size: 12px; font-weight: 200;" x="0" y="79.0533332824707" dx="0em" dy="0.3em" fill="rgb(50, 49, 63)" stroke="none" stroke-width="1px">0.5</text><text style="text-anchor: end; visibility: hidden; font-family: Roboto, sans-serif; font-size: 12px; font-weight: 200;" x="0" y="59.289999961853034" dx="0em" dy="0.3em" fill="rgb(50, 49, 63)" stroke="none" stroke-width="1px">0.6</text><text style="text-anchor: end; visibility: inherit; font-family: Roboto, sans-serif; font-size: 12px; font-weight: 200;" x="0" y="39.526666641235366" dx="0em" dy="0.3em" fill="rgb(50, 49, 63)" stroke="none" stroke-width="1px">0.7</text><text style="text-anchor: end; visibility: hidden; font-family: Roboto, sans-serif; font-size: 12px; font-weight: 200;" x="0" y="19.763333320617665" dx="0em" dy="0.3em" fill="rgb(50, 49, 63)" stroke="none" stroke-width="1px">0.8</text><text style="text-anchor: end; visibility: hidden; font-family: Roboto, sans-serif; font-size: 12px; font-weight: 200;" x="0" y="0" dx="0em" dy="0.3em" fill="rgb(50, 49, 63)" stroke="none" stroke-width="1px">0.9</text></g><line x1="41.149001121520996" y1="0" x2="41.149001121520996" y2="177.86999988555908" fill="rgb(0, 0, 0)" stroke="rgb(204, 204, 204)" stroke-width="1px"></line></g></g><g transform="translate(41, 0)" clip-path="url(#clip_0)"><clipPath id="clip_0"><rect width="288" height="177"></rect></clipPath><g><g><g><line x1="0" y1="0" x2="0" y2="177.86999988555908" fill="rgb(0, 0, 0)" stroke="rgb(60, 60, 60)" stroke-width="1px" opacity="0.25"></line><line x1="32.09455543094211" y1="0" x2="32.09455543094211" y2="177.86999988555908" fill="rgb(0, 0, 0)" stroke="rgb(60, 60, 60)" stroke-width="1px" opacity="0.25"></line><line x1="64.18911086188422" y1="0" x2="64.18911086188422" y2="177.86999988555908" fill="rgb(0, 0, 0)" stroke="rgb(60, 60, 60)" stroke-width="1px" opacity="0.25"></line><line x1="96.28366629282633" y1="0" x2="96.28366629282633" y2="177.86999988555908" fill="rgb(0, 0, 0)" stroke="rgb(60, 60, 60)" stroke-width="1px" opacity="0.25"></line><line x1="128.37822172376843" y1="0" x2="128.37822172376843" y2="177.86999988555908" fill="rgb(0, 0, 0)" stroke="rgb(60, 60, 60)" stroke-width="1px" opacity="0.25"></line><line x1="160.47277715471057" y1="0" x2="160.47277715471057" y2="177.86999988555908" fill="rgb(0, 0, 0)" stroke="rgb(60, 60, 60)" stroke-width="1px" opacity="0.25"></line><line x1="192.56733258565265" y1="0" x2="192.56733258565265" y2="177.86999988555908" fill="rgb(0, 0, 0)" stroke="rgb(60, 60, 60)" stroke-width="1px" opacity="0.25"></line><line x1="224.6618880165948" y1="0" x2="224.6618880165948" y2="177.86999988555908" fill="rgb(0, 0, 0)" stroke="rgb(60, 60, 60)" stroke-width="1px" opacity="0.25"></line><line x1="256.75644344753687" y1="0" x2="256.75644344753687" y2="177.86999988555908" fill="rgb(0, 0, 0)" stroke="rgb(60, 60, 60)" stroke-width="1px" opacity="0.25"></line><line x1="288.850998878479" y1="0" x2="288.850998878479" y2="177.86999988555908" fill="rgb(0, 0, 0)" stroke="rgb(60, 60, 60)" stroke-width="1px" opacity="0.25"></line></g><g><line x1="0" y1="177.86999988555908" x2="288.850998878479" y2="177.86999988555908" fill="rgb(0, 0, 0)" stroke="rgb(60, 60, 60)" stroke-width="1px" opacity="0.25"></line><line x1="0" y1="158.1066665649414" x2="288.850998878479" y2="158.1066665649414" fill="rgb(0, 0, 0)" stroke="rgb(60, 60, 60)" stroke-width="1px" opacity="0.25"></line><line x1="0" y1="138.34333324432373" x2="288.850998878479" y2="138.34333324432373" fill="rgb(0, 0, 0)" stroke="rgb(60, 60, 60)" stroke-width="1px" opacity="0.25"></line><line x1="0" y1="118.57999992370607" x2="288.850998878479" y2="118.57999992370607" fill="rgb(0, 0, 0)" stroke="rgb(60, 60, 60)" stroke-width="1px" opacity="0.25"></line><line x1="0" y1="98.81666660308838" x2="288.850998878479" y2="98.81666660308838" fill="rgb(0, 0, 0)" stroke="rgb(60, 60, 60)" stroke-width="1px" opacity="0.25"></line><line x1="0" y1="79.0533332824707" x2="288.850998878479" y2="79.0533332824707" fill="rgb(0, 0, 0)" stroke="rgb(60, 60, 60)" stroke-width="1px" opacity="0.25"></line><line x1="0" y1="59.289999961853034" x2="288.850998878479" y2="59.289999961853034" fill="rgb(0, 0, 0)" stroke="rgb(60, 60, 60)" stroke-width="1px" opacity="0.25"></line><line x1="0" y1="39.526666641235366" x2="288.850998878479" y2="39.526666641235366" fill="rgb(0, 0, 0)" stroke="rgb(60, 60, 60)" stroke-width="1px" opacity="0.25"></line><line x1="0" y1="19.763333320617665" x2="288.850998878479" y2="19.763333320617665" fill="rgb(0, 0, 0)" stroke="rgb(60, 60, 60)" stroke-width="1px" opacity="0.25"></line><line x1="0" y1="0" x2="288.850998878479" y2="0" fill="rgb(0, 0, 0)" stroke="rgb(60, 60, 60)" stroke-width="1px" opacity="0.25"></line></g></g></g><g><g><line x1="0" y1="177.86999988555908" x2="288.850998878479" y2="177.86999988555908" fill="rgb(0, 0, 0)" stroke="rgb(153, 153, 153)" stroke-width="1.5px"></line></g></g><g><g><line x1="32.09455543094211" y1="0" x2="32.09455543094211" y2="177.86999988555908" fill="rgb(0, 0, 0)" stroke="rgb(153, 153, 153)" stroke-width="1.5px"></line></g></g><g><g><g><g><g><path style="fill: none;" stroke="rgb(0, 119, 187)" stroke-width="2px" d="M38.51346651713053,-36.620811223071826L41.72292206022474,0.8209998215522396L44.932377603318955,27.071532056276624L48.14183314641316,47.45616176222882L51.35128868950738,63.974493964621594L54.560744232601586,76.53696604788523L57.7701997756958,86.22165045235172L60.97965531879001,94.00510296360108L64.18911086188422,99.44501847333969L67.39856640497844,103.51445602767876L70.60802194807265,106.6587855591758L73.81747749116685,109.55700246594832L77.02693303426106,112.30438160225953L80.23638857735529,115.18707710956046L83.44584412044948,116.35400009854648L86.6552996635437,118.31883747347813L89.86475520663791,120.07301588186358L93.07421074973213,121.61523207169712L96.28366629282633,121.88834038987885L99.49312183592055,122.62165240935254L102.70257737901476,124.61199838220821L105.91203292210896,124.7388738587356L109.12148846520317,124.98566592374132L112.3309440082974,126.8632822354947L115.5403995513916,127.6071524071148L118.74985509448581,126.78295123190469L121.95931063758002,128.10582667817474L125.16876618067424,128.3292270062783L128.37822172376843,128.07122851298007L131.58767726686264,129.09716894938936L134.79713280995688,128.80729620335066L138.0065883530511,128.2391146202453L141.2160438961453,128.6467477671521L144.4254994392395,130.06294828620753L147.6349549823337,130.9744822502897L150.84441052542795,131.93766534683243L154.05386606852213,131.9137784351947L157.26332161161633,131.35155418208817L160.47277715471057,131.2036174722286L163.68223269780478,132.35981043951435L166.89168824089896,132.40096177084823L170.1011437839932,131.71318633143747L173.3105993270874,132.3684199832973L176.52005487018164,131.7988625179796L179.72951041327582,131.6778426502877L182.93896595637003,132.73181221861842L186.14842149946426,132.7052436464884L189.35787704255847,133.07822062362592L192.56733258565265,132.5543541161983L195.7767881287469,132.4995410953971L198.9862436718411,133.16470096670093L202.1956992149353,131.85096098801105L205.4051547580295,132.55859253365568L208.61461030112372,133.58635000509622L211.82406584421793,133.17803375529482L215.03352138731216,133.89127944902552L218.24297693040634,133.81713958543264L221.45243247350058,132.5595039532556L224.6618880165948,133.78185008238273L227.871343559689,133.78988550209962L231.0807991027832,133.0122657640249L234.2902546458774,133.5841384629994L237.49971018897162,133.79958012975135L240.70916573206586,133.9790615146976L243.91862127516004,134.13304992557386L247.12807681825424,133.28139284146553L250.33753236134848,133.8741601261733L253.5469879044427,134.56924198224337L256.75644344753687,134.15249814213593" fill="none"></path></g><g><path style="fill: none;" stroke="rgb(255, 112, 67)" stroke-width="2px" d="M41.72292206022474,-24.87266532328023L44.932377603318955,10.844963059118001L48.14183314641316,36.66492205763418L51.35128868950738,56.757770138633774L54.560744232601586,72.0355582402038L57.7701997756958,84.84227456310416L60.97965531879001,93.21006455344046L64.18911086188422,100.2531639283297L67.39856640497844,106.45233932294363L70.60802194807265,111.45238457386351L73.81747749116685,115.30789273922699L77.02693303426106,117.50942544702214L80.23638857735529,120.5104034589513L83.44584412044948,122.71770950480546L86.6552996635437,125.86551394599131L89.86475520663791,127.56743351381368L93.07421074973213,129.01633208400344L96.28366629282633,129.60712105093793L99.49312183592055,130.6827742548751L102.70257737901476,132.16914478476548L105.91203292210896,134.00194670278347L109.12148846520317,135.73439248046967L112.3309440082974,136.8991547165931L115.5403995513916,137.05746758553911L118.74985509448581,137.336063353869L121.95931063758002,138.59800756507215L125.16876618067424,138.58187145232372L128.37822172376843,139.1984204311553L131.58767726686264,139.4591574803009L134.79713280995688,140.42924676463448L138.0065883530511,141.67606753488838L141.2160438961453,142.3573810984771L144.4254994392395,143.2062414162047L147.6349549823337,143.55917989741914L150.84441052542795,143.94342258519237L154.05386606852213,143.96229345311437L157.26332161161633,144.7001049637373L160.47277715471057,144.87464092095254L163.68223269780478,145.21396438917512L166.89168824089896,145.63641304091135L170.1011437839932,146.49450145347677L173.3105993270874,147.2756053570973L176.52005487018164,147.15356049780186L179.72951041327582,147.77566365127058L182.93896595637003,147.7904454151123L186.14842149946426,148.7754871169008L189.35787704255847,148.89350580992158L192.56733258565265,149.56472965757695L195.7767881287469,149.6188553645034L198.9862436718411,149.39583966085522L202.1956992149353,149.7520254874643L205.4051547580295,150.42975880872297L208.61461030112372,150.83139824894604L211.82406584421793,151.40680873572572L215.03352138731216,151.29382418394817L218.24297693040634,151.62079085218673L221.45243247350058,152.07302270248928L224.6618880165948,152.54248558876063L227.871343559689,152.37413420742092L231.0807991027832,153.17110717066225L234.2902546458774,152.78856215641397L237.49971018897162,152.93956894963276L240.70916573206586,153.16953648094878L243.91862127516004,152.50179899734135L247.12807681825424,153.23314377596938L250.33753236134848,153.7529372124192L253.5469879044427,154.05552779600117L256.75644344753687,154.4396657789859" fill="none"></path></g></g></g></g><g opacity="0.2"><g><g><g><path style="fill: none;" stroke="rgb(0, 119, 187)" stroke-width="2px" d="M35.30401097403632,-46.18637069750502L38.51346651713053,9.08445961010092L41.72292206022474,44.85256961003007L44.932377603318955,61.34422694193279L48.14183314641316,75.65544311225483L51.35128868950738,87.59597330735848L54.560744232601586,94.85317094501558L57.7701997756958,100.50467879584107L60.97965531879001,105.5626228281169L64.18911086188422,107.55555210465208L67.39856640497844,109.59646665972305L70.60802194807265,111.3650130749473L73.81747749116685,113.89864991747534L77.02693303426106,116.42222086568428L80.23638857735529,119.50908727029785L83.44584412044948,118.10389077932474L86.6552996635437,121.26559466387891L89.86475520663791,122.70401626301707L93.07421074973213,123.92841539177897L96.28366629282633,122.29798788924218L99.49312183592055,123.72159630861876L102.70257737901476,127.59747804558248L105.91203292210896,124.9291855705657L109.12148846520317,125.35585226715756L112.3309440082974,129.67969869594884L115.5403995513916,128.72295576118506L118.74985509448581,125.54665073443249L121.95931063758002,130.09013862902452L125.16876618067424,128.6643273749637L128.37822172376843,127.68423085858774L131.58767726686264,130.6360793998755L134.79713280995688,128.3724871188976L138.0065883530511,127.3868422862849L141.2160438961453,129.25819746999355L144.4254994392395,132.1872490282725L147.6349549823337,132.34178318231005L150.84441052542795,133.3824399827053L154.05386606852213,131.87794806787113L157.26332161161633,130.50821780430726L160.47277715471057,130.98171240773584L163.68223269780478,134.094099889052L166.89168824089896,132.4626887678193L170.1011437839932,130.68152317261922L173.3105993270874,133.35127046091674L176.52005487018164,130.94452632009182L179.72951041327582,131.49631284876125L182.93896595637003,134.3127665710553L186.14842149946426,132.66539078829427L189.35787704255847,133.63768608932463L192.56733258565265,131.7685543550633L195.7767881287469,132.41732156419562L198.9862436718411,134.1624407736538L202.1956992149353,129.88035101997968L205.4051547580295,133.62003985212158L208.61461030112372,135.12798621225602L211.82406584421793,132.56555938059296L215.03352138731216,134.96114798962128L218.24297693040634,133.7059297900433L221.45243247350058,130.6730505049902L224.6618880165948,135.61536927607338L227.871343559689,133.80193863167494L231.0807991027832,131.84583615691284L234.2902546458774,134.44194751146117L237.49971018897162,134.12274262987924L240.70916573206586,134.24828359211705L243.91862127516004,134.3640325418882L247.12807681825424,132.003907215303L250.33753236134848,134.763311053235L253.5469879044427,135.61186476634848L256.75644344753687,133.52738238197477" fill="none"></path></g><g><path style="fill: none;" stroke="rgb(255, 112, 67)" stroke-width="2px" d="M38.51346651713053,-8.891543123167004L41.72292206022474,31.526409279089663L44.932377603318955,57.47789867517712L48.14183314641316,72.38322053782144L51.35128868950738,85.49086438003248L54.560744232601586,94.3107199590587L57.7701997756958,103.72969356280367L60.97965531879001,105.63525747337324L64.18911086188422,110.75393259770539L67.39856640497844,115.71736677612267L70.60802194807265,118.93612643497124L73.81747749116685,121.08360164540859L77.02693303426106,120.80913668965921L80.23638857735529,125.00975395464468L83.44584412044948,126.0277345156435L86.6552996635437,130.58642138056345L89.86475520663791,130.1200535952309L93.07421074973213,131.18954750421966L96.28366629282633,130.4932721010687L99.49312183592055,132.29621866595397L102.70257737901476,134.39867123380782L105.91203292210896,136.7511278685244L109.12148846520317,138.3330488335159L112.3309440082974,138.64629310359933L115.5403995513916,137.2949364838789L118.74985509448581,137.75395657865377L121.95931063758002,140.4909227194479L125.16876618067424,138.55766729211925L128.37822172376843,140.12324369494837L131.58767726686264,139.85026300214133L134.79713280995688,141.88438057532568L138.0065883530511,143.546298600962L141.2160438961453,143.3793514145795L144.4254994392395,144.47953187090735L147.6349549823337,144.0885876137803L150.84441052542795,144.51978661328528L154.05386606852213,143.99059975489226L157.26332161161633,145.806822227206L160.47277715471057,145.13644485642547L163.68223269780478,145.7229495911007L166.89168824089896,146.27008601821078L170.1011437839932,147.78163407195325L173.3105993270874,148.44726121232515L176.52005487018164,146.97049320887774L179.72951041327582,148.70881838141545L182.93896595637003,147.81261806087403L186.14842149946426,150.25304966955036L189.35787704255847,149.07053384945033L192.56733258565265,150.57156542905193L195.7767881287469,149.7000439248926L198.9862436718411,149.06131610538398L202.1956992149353,150.28630422737695L205.4051547580295,151.44635879060988L208.61461030112372,151.43385740928028L211.82406584421793,152.26992446589495L215.03352138731216,151.12434735628187L218.24297693040634,152.11124085454446L221.45243247350058,152.75137047794306L224.6618880165948,153.24667991816764L227.871343559689,152.1216071354114L231.0807991027832,154.36656661552422L234.2902546458774,152.21474463504154L237.49971018897162,153.16607913946098L240.70916573206586,153.51448777792274L243.91862127516004,151.50019277193027L247.12807681825424,154.33016094391138L250.33753236134848,154.53262736709394L253.5469879044427,154.50941367137415L256.75644344753687,155.015872753463" fill="none"></path></g></g></g></g></g><g><g opacity="0.469461"><span fill="rgb(0, 0, 0)" stroke="none" stroke-width="1px">Alt + Scroll to Zoom</span></g></g></g><g transform="translate(41, 177)" clip-path="url(#clip_1)"><clipPath id="clip_1"><rect width="288" height="22"></rect></clipPath><g><g><line x1="0" y1="0" x2="0" y2="5" style="visibility: inherit;" fill="rgb(0, 0, 0)" stroke="rgb(204, 204, 204)" stroke-width="1px"></line><line x1="32.09455543094211" y1="0" x2="32.09455543094211" y2="5" style="visibility: inherit;" fill="rgb(0, 0, 0)" stroke="rgb(204, 204, 204)" stroke-width="1px"></line><line x1="64.18911086188422" y1="0" x2="64.18911086188422" y2="5" style="visibility: inherit;" fill="rgb(0, 0, 0)" stroke="rgb(204, 204, 204)" stroke-width="1px"></line><line x1="96.28366629282633" y1="0" x2="96.28366629282633" y2="5" style="visibility: inherit;" fill="rgb(0, 0, 0)" stroke="rgb(204, 204, 204)" stroke-width="1px"></line><line x1="128.37822172376843" y1="0" x2="128.37822172376843" y2="5" style="visibility: inherit;" fill="rgb(0, 0, 0)" stroke="rgb(204, 204, 204)" stroke-width="1px"></line><line x1="160.47277715471057" y1="0" x2="160.47277715471057" y2="5" style="visibility: inherit;" fill="rgb(0, 0, 0)" stroke="rgb(204, 204, 204)" stroke-width="1px"></line><line x1="192.56733258565265" y1="0" x2="192.56733258565265" y2="5" style="visibility: inherit;" fill="rgb(0, 0, 0)" stroke="rgb(204, 204, 204)" stroke-width="1px"></line><line x1="224.6618880165948" y1="0" x2="224.6618880165948" y2="5" style="visibility: inherit;" fill="rgb(0, 0, 0)" stroke="rgb(204, 204, 204)" stroke-width="1px"></line><line x1="256.75644344753687" y1="0" x2="256.75644344753687" y2="5" style="visibility: inherit;" fill="rgb(0, 0, 0)" stroke="rgb(204, 204, 204)" stroke-width="1px"></line><line x1="288.850998878479" y1="0" x2="288.850998878479" y2="5" style="visibility: inherit;" fill="rgb(0, 0, 0)" stroke="rgb(204, 204, 204)" stroke-width="1px"></line></g><g transform="translate(0, 8)"><text style="text-anchor: middle; visibility: hidden; font-family: Roboto, sans-serif; font-size: 12px; font-weight: 200;" x="0" y="0" dx="0em" dy="0.95em" fill="rgb(50, 49, 63)" stroke="none" stroke-width="1px">-10</text><text style="text-anchor: middle; visibility: inherit; font-family: Roboto, sans-serif; font-size: 12px; font-weight: 200;" x="32.09455543094211" y="0" dx="0em" dy="0.95em" fill="rgb(50, 49, 63)" stroke="none" stroke-width="1px">0</text><text style="text-anchor: middle; visibility: inherit; font-family: Roboto, sans-serif; font-size: 12px; font-weight: 200;" x="64.18911086188422" y="0" dx="0em" dy="0.95em" fill="rgb(50, 49, 63)" stroke="none" stroke-width="1px">10</text><text style="text-anchor: middle; visibility: inherit; font-family: Roboto, sans-serif; font-size: 12px; font-weight: 200;" x="96.28366629282633" y="0" dx="0em" dy="0.95em" fill="rgb(50, 49, 63)" stroke="none" stroke-width="1px">20</text><text style="text-anchor: middle; visibility: inherit; font-family: Roboto, sans-serif; font-size: 12px; font-weight: 200;" x="128.37822172376843" y="0" dx="0em" dy="0.95em" fill="rgb(50, 49, 63)" stroke="none" stroke-width="1px">30</text><text style="text-anchor: middle; visibility: inherit; font-family: Roboto, sans-serif; font-size: 12px; font-weight: 200;" x="160.47277715471057" y="0" dx="0em" dy="0.95em" fill="rgb(50, 49, 63)" stroke="none" stroke-width="1px">40</text><text style="text-anchor: middle; visibility: inherit; font-family: Roboto, sans-serif; font-size: 12px; font-weight: 200;" x="192.56733258565265" y="0" dx="0em" dy="0.95em" fill="rgb(50, 49, 63)" stroke="none" stroke-width="1px">50</text><text style="text-anchor: middle; visibility: inherit; font-family: Roboto, sans-serif; font-size: 12px; font-weight: 200;" x="224.6618880165948" y="0" dx="0em" dy="0.95em" fill="rgb(50, 49, 63)" stroke="none" stroke-width="1px">60</text><text style="text-anchor: middle; visibility: inherit; font-family: Roboto, sans-serif; font-size: 12px; font-weight: 200;" x="256.75644344753687" y="0" dx="0em" dy="0.95em" fill="rgb(50, 49, 63)" stroke="none" stroke-width="1px">70</text><text style="text-anchor: middle; visibility: hidden; font-family: Roboto, sans-serif; font-size: 12px; font-weight: 200;" x="288.850998878479" y="0" dx="0em" dy="0.95em" fill="rgb(50, 49, 63)" stroke="none" stroke-width="1px">80</text></g><line x1="0" y1="0" x2="288.850998878479" y2="0" fill="rgb(0, 0, 0)" stroke="rgb(204, 204, 204)" stroke-width="1px"></line></g></g></g></g></svg>