<svg viewBox="0 0 330 200" xmlns="http://www.w3.org/2000/svg"><g><g><g><g><g><line x1="51.53200149536133" y1="177.86999988555908" x2="46.53200149536133" y2="177.86999988555908" style="visibility: inherit;" fill="rgb(0, 0, 0)" stroke="rgb(204, 204, 204)" stroke-width="1px"></line><line x1="51.53200149536133" y1="155.63624989986417" x2="46.53200149536133" y2="155.63624989986417" style="visibility: inherit;" fill="rgb(0, 0, 0)" stroke="rgb(204, 204, 204)" stroke-width="1px"></line><line x1="51.53200149536133" y1="133.40249991416928" x2="46.53200149536133" y2="133.40249991416928" style="visibility: inherit;" fill="rgb(0, 0, 0)" stroke="rgb(204, 204, 204)" stroke-width="1px"></line><line x1="51.53200149536133" y1="111.16874992847438" x2="46.53200149536133" y2="111.16874992847438" style="visibility: inherit;" fill="rgb(0, 0, 0)" stroke="rgb(204, 204, 204)" stroke-width="1px"></line><line x1="51.53200149536133" y1="88.93499994277948" x2="46.53200149536133" y2="88.93499994277948" style="visibility: inherit;" fill="rgb(0, 0, 0)" stroke="rgb(204, 204, 204)" stroke-width="1px"></line><line x1="51.53200149536133" y1="66.70124995708457" x2="46.53200149536133" y2="66.70124995708457" style="visibility: inherit;" fill="rgb(0, 0, 0)" stroke="rgb(204, 204, 204)" stroke-width="1px"></line><line x1="51.53200149536133" y1="44.46749997138981" x2="46.53200149536133" y2="44.46749997138981" style="visibility: inherit;" fill="rgb(0, 0, 0)" stroke="rgb(204, 204, 204)" stroke-width="1px"></line><line x1="51.53200149536133" y1="22.233749985694907" x2="46.53200149536133" y2="22.233749985694907" style="visibility: inherit;" fill="rgb(0, 0, 0)" stroke="rgb(204, 204, 204)" stroke-width="1px"></line><line x1="51.53200149536133" y1="0" x2="46.53200149536133" y2="0" style="visibility: inherit;" fill="rgb(0, 0, 0)" stroke="rgb(204, 204, 204)" stroke-width="1px"></line></g><g transform="translate(41.53200149536133, 0)"><text style="text-anchor: end; visibility: hidden; font-family: Roboto, sans-serif; font-size: 12px; font-weight: 200;" x="0" y="177.86999988555908" dx="0em" dy="0.3em" fill="rgb(50, 49, 63)" stroke="none" stroke-width="1px">0.82</text><text style="text-anchor: end; visibility: inherit; font-family: Roboto, sans-serif; font-size: 12px; font-weight: 200;" x="0" y="155.63624989986417" dx="0em" dy="0.3em" fill="rgb(50, 49, 63)" stroke="none" stroke-width="1px">0.84</text><text style="text-anchor: end; visibility: hidden; font-family: Roboto, sans-serif; font-size: 12px; font-weight: 200;" x="0" y="133.40249991416928" dx="0em" dy="0.3em" fill="rgb(50, 49, 63)" stroke="none" stroke-width="1px">0.86</text><text style="text-anchor: end; visibility: inherit; font-family: Roboto, sans-serif; font-size: 12px; font-weight: 200;" x="0" y="111.16874992847438" dx="0em" dy="0.3em" fill="rgb(50, 49, 63)" stroke="none" stroke-width="1px">0.88</text><text style="text-anchor: end; visibility: hidden; font-family: Roboto, sans-serif; font-size: 12px; font-weight: 200;" x="0" y="88.93499994277948" dx="0em" dy="0.3em" fill="rgb(50, 49, 63)" stroke="none" stroke-width="1px">0.9</text><text style="text-anchor: end; visibility: inherit; font-family: Roboto, sans-serif; font-size: 12px; font-weight: 200;" x="0" y="66.70124995708457" dx="0em" dy="0.3em" fill="rgb(50, 49, 63)" stroke="none" stroke-width="1px">0.92</text><text style="text-anchor: end; visibility: hidden; font-family: Roboto, sans-serif; font-size: 12px; font-weight: 200;" x="0" y="44.46749997138981" dx="0em" dy="0.3em" fill="rgb(50, 49, 63)" stroke="none" stroke-width="1px">0.94</text><text style="text-anchor: end; visibility: inherit; font-family: Roboto, sans-serif; font-size: 12px; font-weight: 200;" x="0" y="22.233749985694907" dx="0em" dy="0.3em" fill="rgb(50, 49, 63)" stroke="none" stroke-width="1px">0.96</text><text style="text-anchor: end; visibility: hidden; font-family: Roboto, sans-serif; font-size: 12px; font-weight: 200;" x="0" y="0" dx="0em" dy="0.3em" fill="rgb(50, 49, 63)" stroke="none" stroke-width="1px">0.98</text></g><line x1="51.53200149536133" y1="0" x2="51.53200149536133" y2="177.86999988555908" fill="rgb(0, 0, 0)" stroke="rgb(204, 204, 204)" stroke-width="1px"></line></g></g><g transform="translate(51, 0)" clip-path="url(#clip_0)"><clipPath id="clip_0"><rect width="278" height="177"></rect></clipPath><g><g><g><line x1="0" y1="0" x2="0" y2="177.86999988555908" fill="rgb(0, 0, 0)" stroke="rgb(60, 60, 60)" stroke-width="1px" opacity="0.25"></line><line x1="30.94088872273763" y1="0" x2="30.94088872273763" y2="177.86999988555908" fill="rgb(0, 0, 0)" stroke="rgb(60, 60, 60)" stroke-width="1px" opacity="0.25"></line><line x1="61.88177744547526" y1="0" x2="61.88177744547526" y2="177.86999988555908" fill="rgb(0, 0, 0)" stroke="rgb(60, 60, 60)" stroke-width="1px" opacity="0.25"></line><line x1="92.82266616821289" y1="0" x2="92.82266616821289" y2="177.86999988555908" fill="rgb(0, 0, 0)" stroke="rgb(60, 60, 60)" stroke-width="1px" opacity="0.25"></line><line x1="123.76355489095052" y1="0" x2="123.76355489095052" y2="177.86999988555908" fill="rgb(0, 0, 0)" stroke="rgb(60, 60, 60)" stroke-width="1px" opacity="0.25"></line><line x1="154.70444361368817" y1="0" x2="154.70444361368817" y2="177.86999988555908" fill="rgb(0, 0, 0)" stroke="rgb(60, 60, 60)" stroke-width="1px" opacity="0.25"></line><line x1="185.64533233642578" y1="0" x2="185.64533233642578" y2="177.86999988555908" fill="rgb(0, 0, 0)" stroke="rgb(60, 60, 60)" stroke-width="1px" opacity="0.25"></line><line x1="216.58622105916342" y1="0" x2="216.58622105916342" y2="177.86999988555908" fill="rgb(0, 0, 0)" stroke="rgb(60, 60, 60)" stroke-width="1px" opacity="0.25"></line><line x1="247.52710978190103" y1="0" x2="247.52710978190103" y2="177.86999988555908" fill="rgb(0, 0, 0)" stroke="rgb(60, 60, 60)" stroke-width="1px" opacity="0.25"></line><line x1="278.4679985046387" y1="0" x2="278.4679985046387" y2="177.86999988555908" fill="rgb(0, 0, 0)" stroke="rgb(60, 60, 60)" stroke-width="1px" opacity="0.25"></line></g><g><line x1="0" y1="177.86999988555908" x2="278.4679985046387" y2="177.86999988555908" fill="rgb(0, 0, 0)" stroke="rgb(60, 60, 60)" stroke-width="1px" opacity="0.25"></line><line x1="0" y1="155.63624989986417" x2="278.4679985046387" y2="155.63624989986417" fill="rgb(0, 0, 0)" stroke="rgb(60, 60, 60)" stroke-width="1px" opacity="0.25"></line><line x1="0" y1="133.40249991416928" x2="278.4679985046387" y2="133.40249991416928" fill="rgb(0, 0, 0)" stroke="rgb(60, 60, 60)" stroke-width="1px" opacity="0.25"></line><line x1="0" y1="111.16874992847438" x2="278.4679985046387" y2="111.16874992847438" fill="rgb(0, 0, 0)" stroke="rgb(60, 60, 60)" stroke-width="1px" opacity="0.25"></line><line x1="0" y1="88.93499994277948" x2="278.4679985046387" y2="88.93499994277948" fill="rgb(0, 0, 0)" stroke="rgb(60, 60, 60)" stroke-width="1px" opacity="0.25"></line><line x1="0" y1="66.70124995708457" x2="278.4679985046387" y2="66.70124995708457" fill="rgb(0, 0, 0)" stroke="rgb(60, 60, 60)" stroke-width="1px" opacity="0.25"></line><line x1="0" y1="44.46749997138981" x2="278.4679985046387" y2="44.46749997138981" fill="rgb(0, 0, 0)" stroke="rgb(60, 60, 60)" stroke-width="1px" opacity="0.25"></line><line x1="0" y1="22.233749985694907" x2="278.4679985046387" y2="22.233749985694907" fill="rgb(0, 0, 0)" stroke="rgb(60, 60, 60)" stroke-width="1px" opacity="0.25"></line><line x1="0" y1="0" x2="278.4679985046387" y2="0" fill="rgb(0, 0, 0)" stroke="rgb(60, 60, 60)" stroke-width="1px" opacity="0.25"></line></g></g></g><g><g><line x1="0" y1="1089.4537492990492" x2="278.4679985046387" y2="1089.4537492990492" fill="rgb(0, 0, 0)" stroke="rgb(153, 153, 153)" stroke-width="1.5px"></line></g></g><g><g><line x1="30.94088872273763" y1="0" x2="30.94088872273763" y2="177.86999988555908" fill="rgb(0, 0, 0)" stroke="rgb(153, 153, 153)" stroke-width="1.5px"></line></g></g><g><g><g><g><g><path style="fill: none;" stroke="rgb(0, 119, 187)" stroke-width="2px" d="M37.129066467285156,203.45705253266104L40.223155339558915,157.62405398575393L43.31724421183268,129.94952292498166L46.411333084106445,110.92971426405865L49.50542195638021,96.60766172575131L52.59951082865397,86.54807878575912L55.693599700927734,80.90749089852832L58.7876885732015,75.85109333130548L61.88177744547526,72.55281920992306L64.97586631774902,70.8651908209981L68.06995519002278,71.27209004612796L71.16404406229654,67.26677225289366L74.25813293457031,66.84788185929861L77.35222180684408,62.066564919019136L80.44631067911783,62.029633301307214L83.5403995513916,59.742846189298675L86.63448842366536,59.503192637906274L89.72857729593913,57.94408688702618L92.82266616821289,59.27313824657471L95.91675504048665,59.22138179456723L99.01084391276042,55.793671810227025L102.10493278503417,54.586224599114495L105.19902165730794,55.27703517797734L108.29311052958171,54.276246633947714L111.38719940185547,53.9588450366901L114.48128827412923,54.90060605485834L117.575377146403,52.635145317019386L120.66946601867676,51.27586940853946L123.76355489095052,53.29082036690989L126.85764376322427,53.650633272121276L129.95173263549805,53.86652099692059L133.04582150777182,54.279097275472225L136.13991038004556,51.979170697718935L139.23399925231934,49.46701369135756L142.32808812459308,48.52583329664281L145.42217699686688,46.82889748130687L148.51626586914062,47.226007219481836L151.61035474141437,49.44563156897978L154.70444361368817,49.36216146014936L157.7985324859619,47.33069438473423L160.89262135823566,47.244041718468466L163.98671023050946,49.1734086235788L167.0807991027832,47.783556472640406L170.17488797505698,48.36491640244895L173.26897684733072,49.279819644651795L176.3630657196045,46.71520201203586L179.45715459187826,47.72390372606339L182.551243464152,47.47996732328891L185.64533233642578,47.61664912378692L188.73942120869955,46.849500772907604L191.8335100809733,45.540054331204466L194.92759895324707,48.43405983304935L198.02168782552084,46.207746125130534L201.1157766977946,44.305844111364365L204.20986557006833,44.579974123296324L207.30395444234213,43.89529469928015L210.39804331461588,44.89973176036563L213.49213218688968,47.76682264838325L216.58622105916342,47.788762318843034L219.68030993143717,48.084969763278764L222.77439880371094,48.262694229940195L225.8684876759847,46.95408419444182L228.96257654825845,46.16891817314271L232.05666542053223,45.69781856036317L235.150754292806,45.69820243485558L238.24484316507974,46.264546548566216L241.33893203735352,46.321282869937356L244.4330209096273,44.940079947264536L247.52710978190103,44.39440183582095" fill="none"></path></g><g><path style="fill: none;" stroke="rgb(255, 112, 67)" stroke-width="2px" d="M40.223155339558915,212.33583332897558L43.31724421183268,166.8104980158231L46.411333084106445,138.99929581892124L49.50542195638021,114.71484998787486L52.59951082865397,100.68271529767411L55.693599700927734,87.4554274844732L58.7876885732015,81.40998323806512L61.88177744547526,74.77339350525477L64.97586631774902,68.53560171331469L68.06995519002278,64.13976308426942L71.16404406229654,60.655397625353146L74.25813293457031,58.94442278331265L77.35222180684408,56.02920136145308L80.44631067911783,54.65837730374423L83.5403995513916,51.663910026141785L86.63448842366536,49.300798905537L89.72857729593913,47.788584713000255L92.82266616821289,48.01449818934297L95.91675504048665,49.4720882061229L99.01084391276042,46.2860520303152L102.10493278503417,42.296972054113695L105.19902165730794,39.99797266375796L108.29311052958171,37.67426631419187L111.38719940185547,39.49069460445792L114.48128827412923,39.2585218751658L117.575377146403,38.83590953533837L120.66946601867676,38.676778481680984L123.76355489095052,37.448144479325194L126.85764376322427,37.27752859614168L129.95173263549805,35.947567544227624L133.04582150777182,32.50553547441131L136.13991038004556,30.723598484925503L139.23399925231934,29.087845431462366L142.32808812459308,29.806166241299326L145.42217699686688,29.198413203138973L148.51626586914062,30.81681619112136L151.61035474141437,29.61593071427429L154.70444361368817,30.406299591593736L157.7985324859619,30.313930043774214L160.89262135823566,29.691917441414944L163.98671023050946,28.468836822015945L167.0807991027832,27.546142495778685L170.17488797505698,27.086935625112968L173.26897684733072,24.73394697262852L176.3630657196045,25.210772356548215L179.45715459187826,23.608249011556264L182.551243464152,22.6467350045747L185.64533233642578,22.164262830096213L188.73942120869955,22.15806170982988L191.8335100809733,23.193086555032142L194.92759895324707,22.11432884155309L198.02168782552084,22.128101316704047L201.1157766977946,21.947492342385097L204.20986557006833,21.366972313965864L207.30395444234213,21.490814940742286L210.39804331461588,20.715247458856958L213.49213218688968,20.155470740021286L216.58622105916342,17.175549305161606L219.68030993143717,17.46508747896702L222.77439880371094,16.883347050308284L225.8684876759847,17.667484540178158L228.96257654825845,16.627066872911804L232.05666542053223,16.097252502256524L235.150754292806,17.101391581642325L238.24484316507974,16.5706932822088L241.33893203735352,15.968992118130068L244.4330209096273,15.985689833806019L247.52710978190103,16.184580922620857" fill="none"></path></g></g></g></g><g opacity="0.2"><g><g><g><path style="fill: none;" stroke="rgb(0, 119, 187)" stroke-width="2px" d="M34.03497759501139,203.50037959595525L37.129066467285156,137.69074494160475L40.223155339558915,103.72444769459105L43.31724421183268,93.81765517203772L46.411333084106445,84.61847175488434L49.50542195638021,76.12689744313091L52.59951082865397,71.8811102872542L55.693599700927734,72.58871939265416L58.7876885732015,68.34293223677744L61.88177744547526,67.63532313137749L64.97586631774902,68.34293223677744L68.06995519002278,71.8811102872542L71.16404406229654,61.26664239756242L74.25813293457031,66.22003865883909L77.35222180684408,54.89796166374735L80.44631067911783,61.974251502962375L83.5403995513916,56.313246136285755L86.63448842366536,59.143748819624065L89.72857729593913,55.605570769147306L92.82266616821289,61.26664239756242L95.91675504048665,59.143748819624065L99.01084391276042,50.65217450787066L102.10493278503417,52.775068085808996L105.19902165730794,56.313246136285755L108.29311052958171,52.775068085808996L111.38719940185547,53.482743452947446L114.48128827412923,56.313246136285755L117.575377146403,49.236956297070755L120.66946601867676,49.236956297070755L123.76355489095052,56.313246136285755L126.85764376322427,54.1903525583474L129.95173263549805,54.1903525583474L133.04582150777182,54.89796166374735L136.13991038004556,48.529280929932305L139.23399925231934,45.698778246593996L142.32808812459308,47.1140627191324L145.42217699686688,44.28349377405559L148.51626586914062,47.82167182453235L151.61035474141437,52.775068085808996L154.70444361368817,49.236956297070755L157.7985324859619,44.28349377405559L160.89262135823566,47.1140627191324L163.98671023050946,52.06745898040904L167.0807991027832,45.698778246593996L170.17488797505698,49.236956297070755L173.26897684733072,50.65217450787066L176.3630657196045,42.868275563255686L179.45715459187826,49.236956297070755L182.551243464152,47.1140627191324L185.64533233642578,47.82167182453235L188.73942120869955,45.698778246593996L191.8335100809733,43.57588466865564L194.92759895324707,52.775068085808996L198.02168782552084,42.868275563255686L201.1157766977946,41.45299109071728L204.20986557006833,44.99116914119404L207.30395444234213,42.868275563255686L210.39804331461588,46.40638735199395L213.49213218688968,52.06745898040904L216.58622105916342,47.82167182453235L219.68030993143717,48.529280929932305L222.77439880371094,48.529280929932305L225.8684876759847,44.99116914119404L228.96257654825845,44.99116914119404L232.05666542053223,44.99116914119404L235.150754292806,45.698778246593996L238.24484316507974,47.1140627191324L241.33893203735352,46.40638735199395L244.4330209096273,42.868275563255686L247.52710978190103,43.57588466865564" fill="none"></path></g><g><path style="fill: none;" stroke="rgb(255, 112, 67)" stroke-width="2px" d="M34.03497759501139,263.8917918934789L37.129066467285156,170.1691348506883L40.223155339558915,129.5638752385339L43.31724421183268,107.37262023097135L46.411333084106445,100.52639114781482L49.50542195638021,79.98770389834523L52.59951082865397,80.22372821086837L55.693599700927734,67.94774722838665L58.7876885732015,72.43320309240379L61.88177744547526,64.87870228646234L64.97586631774902,59.21285981287551L68.06995519002278,57.56035831652103L71.16404406229654,55.43567567164328L74.25813293457031,56.37997170695134L77.35222180684408,51.65842526867256L80.44631067911783,52.602721303980616L83.5403995513916,47.17296940465544L86.63448842366536,45.75649222082411L89.72857729593913,45.52040164656247L92.82266616821289,48.353356014225135L95.91675504048665,51.65842526867256L99.01084391276042,41.50706066933011L102.10493278503417,36.31339934426655L105.19902165730794,36.54948991852819L108.29311052958171,34.1887166993888L111.38719940185547,42.21533239211502L114.48128827412923,38.91026313766758L117.575377146403,38.20199141488266L120.66946601867676,38.4380819891443L123.76355489095052,35.60519388322013L126.85764376322427,37.02160480531297L129.95173263549805,33.95262612512716L133.04582150777182,27.34248761623227L136.13991038004556,28.050693077278687L139.23399925231934,26.634215893447355L142.32808812459308,30.883647444941353L145.42217699686688,28.286783651540325L148.51626586914062,33.24442066408074L151.61035474141437,27.81460250301705L154.70444361368817,31.59185290598777L157.7985324859619,30.17537572215644L160.89262135823566,28.758898538325106L163.98671023050946,26.634215893447355L167.0807991027832,26.162101006662574L170.17488797505698,26.398125319185716L173.26897684733072,21.204463994122158L176.3630657196045,25.926010432400936L179.45715459187826,21.204463994122158L182.551243464152,21.204463994122158L185.64533233642578,21.440554568383796L188.73942120869955,22.148760029430214L191.8335100809733,24.74562382283124L194.92759895324707,20.496192271337243L198.02168782552084,22.148760029430214L201.1157766977946,21.676578880906938L204.20986557006833,20.496192271337243L207.30395444234213,21.676578880906938L210.39804331461588,19.551896236029187L213.49213218688968,19.31580566176755L216.58622105916342,12.705667152872659L219.68030993143717,17.89939473967471L222.77439880371094,16.010736407320103L225.8684876759847,18.84369077498277L228.96257654825845,15.066440372012048L232.05666542053223,15.302530946273686L235.150754292806,18.60760020072113L238.24484316507974,15.774645833058466L241.33893203735352,15.066440372012048L244.4330209096273,16.010736407320103L247.52710978190103,16.48291755584338" fill="none"></path></g></g></g></g></g></g><g transform="translate(51, 177)" clip-path="url(#clip_1)"><clipPath id="clip_1"><rect width="278" height="22"></rect></clipPath><g><g><line x1="0" y1="0" x2="0" y2="5" style="visibility: inherit;" fill="rgb(0, 0, 0)" stroke="rgb(204, 204, 204)" stroke-width="1px"></line><line x1="30.94088872273763" y1="0" x2="30.94088872273763" y2="5" style="visibility: inherit;" fill="rgb(0, 0, 0)" stroke="rgb(204, 204, 204)" stroke-width="1px"></line><line x1="61.88177744547526" y1="0" x2="61.88177744547526" y2="5" style="visibility: inherit;" fill="rgb(0, 0, 0)" stroke="rgb(204, 204, 204)" stroke-width="1px"></line><line x1="92.82266616821289" y1="0" x2="92.82266616821289" y2="5" style="visibility: inherit;" fill="rgb(0, 0, 0)" stroke="rgb(204, 204, 204)" stroke-width="1px"></line><line x1="123.76355489095052" y1="0" x2="123.76355489095052" y2="5" style="visibility: inherit;" fill="rgb(0, 0, 0)" stroke="rgb(204, 204, 204)" stroke-width="1px"></line><line x1="154.70444361368817" y1="0" x2="154.70444361368817" y2="5" style="visibility: inherit;" fill="rgb(0, 0, 0)" stroke="rgb(204, 204, 204)" stroke-width="1px"></line><line x1="185.64533233642578" y1="0" x2="185.64533233642578" y2="5" style="visibility: inherit;" fill="rgb(0, 0, 0)" stroke="rgb(204, 204, 204)" stroke-width="1px"></line><line x1="216.58622105916342" y1="0" x2="216.58622105916342" y2="5" style="visibility: inherit;" fill="rgb(0, 0, 0)" stroke="rgb(204, 204, 204)" stroke-width="1px"></line><line x1="247.52710978190103" y1="0" x2="247.52710978190103" y2="5" style="visibility: inherit;" fill="rgb(0, 0, 0)" stroke="rgb(204, 204, 204)" stroke-width="1px"></line><line x1="278.4679985046387" y1="0" x2="278.4679985046387" y2="5" style="visibility: inherit;" fill="rgb(0, 0, 0)" stroke="rgb(204, 204, 204)" stroke-width="1px"></line></g><g transform="translate(0, 8)"><text style="text-anchor: middle; visibility: hidden; font-family: Roboto, sans-serif; font-size: 12px; font-weight: 200;" x="0" y="0" dx="0em" dy="0.95em" fill="rgb(50, 49, 63)" stroke="none" stroke-width="1px">-10</text><text style="text-anchor: middle; visibility: inherit; font-family: Roboto, sans-serif; font-size: 12px; font-weight: 200;" x="30.94088872273763" y="0" dx="0em" dy="0.95em" fill="rgb(50, 49, 63)" stroke="none" stroke-width="1px">0</text><text style="text-anchor: middle; visibility: inherit; font-family: Roboto, sans-serif; font-size: 12px; font-weight: 200;" x="61.88177744547526" y="0" dx="0em" dy="0.95em" fill="rgb(50, 49, 63)" stroke="none" stroke-width="1px">10</text><text style="text-anchor: middle; visibility: inherit; font-family: Roboto, sans-serif; font-size: 12px; font-weight: 200;" x="92.82266616821289" y="0" dx="0em" dy="0.95em" fill="rgb(50, 49, 63)" stroke="none" stroke-width="1px">20</text><text style="text-anchor: middle; visibility: inherit; font-family: Roboto, sans-serif; font-size: 12px; font-weight: 200;" x="123.76355489095052" y="0" dx="0em" dy="0.95em" fill="rgb(50, 49, 63)" stroke="none" stroke-width="1px">30</text><text style="text-anchor: middle; visibility: inherit; font-family: Roboto, sans-serif; font-size: 12px; font-weight: 200;" x="154.70444361368817" y="0" dx="0em" dy="0.95em" fill="rgb(50, 49, 63)" stroke="none" stroke-width="1px">40</text><text style="text-anchor: middle; visibility: inherit; font-family: Roboto, sans-serif; font-size: 12px; font-weight: 200;" x="185.64533233642578" y="0" dx="0em" dy="0.95em" fill="rgb(50, 49, 63)" stroke="none" stroke-width="1px">50</text><text style="text-anchor: middle; visibility: inherit; font-family: Roboto, sans-serif; font-size: 12px; font-weight: 200;" x="216.58622105916342" y="0" dx="0em" dy="0.95em" fill="rgb(50, 49, 63)" stroke="none" stroke-width="1px">60</text><text style="text-anchor: middle; visibility: inherit; font-family: Roboto, sans-serif; font-size: 12px; font-weight: 200;" x="247.52710978190103" y="0" dx="0em" dy="0.95em" fill="rgb(50, 49, 63)" stroke="none" stroke-width="1px">70</text><text style="text-anchor: middle; visibility: hidden; font-family: Roboto, sans-serif; font-size: 12px; font-weight: 200;" x="278.4679985046387" y="0" dx="0em" dy="0.95em" fill="rgb(50, 49, 63)" stroke="none" stroke-width="1px">80</text></g><line x1="0" y1="0" x2="278.4679985046387" y2="0" fill="rgb(0, 0, 0)" stroke="rgb(204, 204, 204)" stroke-width="1px"></line></g></g></g></g></svg>